<?xml version="1.0" encoding="UTF-8"?>
<svg width="72px" height="72px" viewBox="0 0 72 72" version="1.1" xmlns="http://www.w3.org/2000/svg" xmlns:xlink="http://www.w3.org/1999/xlink">
    <!-- Generator: Sketch 45.1 (43504) - http://www.bohemiancoding.com/sketch -->
    <title>Instagram</title>
    <desc>Created with Sketch.</desc>
    <defs>
        <polygon id="path-1" points="36.00015 0 72 0 72 72 36.00015 72 0.0003 72 0.0003 0"></polygon>
    </defs>
    <g id="09-Baseline" stroke="none" stroke-width="1" fill="none" fill-rule="evenodd">
        <g id="Instagram">
            <rect id="Rectangle" x="16" y="16" width="72" height="72"></rect>
            <g id="Page-1">
                <g id="Group-3">
                    <mask id="mask-2" fill="white">
                        <use xlink:href="#path-1"></use>
                    </mask>
                    <g id="Clip-2"></g>
                    <path d="M36.0003,0 C16.1173,0 0.0003,16.118 0.0003,36 C0.0003,55.882 16.1173,72 36.0003,72 C55.8823,72 72.0003,55.882 72.0003,36 C72.0003,16.118 55.8823,0 36.0003,0 M36.0003,2 C54.7473,2 70.0003,17.252 70.0003,36 C70.0003,54.748 54.7473,70 36.0003,70 C17.2523,70 2.0003,54.748 2.0003,36 C2.0003,17.252 17.2523,2 36.0003,2" id="Fill-1" fill="#231F20" mask="url(#mask-2)"></path>
                </g>
                <path d="M42.7962,17.981 L29.3002,17.981 C23.0612,17.981 17.9552,23.086 17.9552,29.326 L17.9552,42.623 C17.9552,48.863 23.0612,53.968 29.3002,53.968 L42.7962,53.968 C49.0352,53.968 54.1412,48.863 54.1412,42.623 L54.1412,29.326 C54.1412,23.086 49.0352,17.981 42.7962,17.981 M42.7962,19.981 C47.9482,19.981 52.1412,24.173 52.1412,29.326 L52.1412,42.623 C52.1412,47.776 47.9482,51.968 42.7962,51.968 L29.3002,51.968 C24.1482,51.968 19.9552,47.776 19.9552,42.623 L19.9552,29.326 C19.9552,24.173 24.1482,19.981 29.3002,19.981 L42.7962,19.981" id="Fill-4" fill="#231F20"></path>
                <path d="M35.9212,26.9351 C30.9532,26.9351 26.9272,30.9611 26.9272,35.9291 C26.9272,40.8961 30.9532,44.9221 35.9212,44.9221 C40.8882,44.9221 44.9142,40.8961 44.9142,35.9291 C44.9142,30.9611 40.8882,26.9351 35.9212,26.9351 M35.9212,28.9351 C39.7772,28.9351 42.9142,32.0721 42.9142,35.9291 C42.9142,39.7851 39.7772,42.9221 35.9212,42.9221 C32.0652,42.9221 28.9272,39.7851 28.9272,35.9291 C28.9272,32.0721 32.0652,28.9351 35.9212,28.9351" id="Fill-6" fill="#231F20"></path>
                <path d="M45.4788,27.7027 C44.8528,27.7027 44.3428,27.1927 44.3428,26.5667 C44.3428,25.9397 44.8528,25.4307 45.4788,25.4307 C46.1048,25.4307 46.6148,25.9397 46.6148,26.5667 C46.6148,27.1927 46.1048,27.7027 45.4788,27.7027" id="Fill-8" fill="#231F20"></path>
                <path d="M45.4788,24.4302 C44.2988,24.4302 43.3428,25.3872 43.3428,26.5662 C43.3428,27.7462 44.2988,28.7022 45.4788,28.7022 C46.6588,28.7022 47.6148,27.7462 47.6148,26.5662 C47.6148,25.3872 46.6588,24.4302 45.4788,24.4302 M45.4788,26.4302 C45.5538,26.4302 45.6148,26.4912 45.6148,26.5662 C45.6148,26.6412 45.5538,26.7022 45.4788,26.7022 C45.4038,26.7022 45.3428,26.6412 45.3428,26.5662 C45.3428,26.4912 45.4038,26.4302 45.4788,26.4302" id="Fill-10" fill="#231F20"></path>
            </g>
        </g>
    </g>
</svg>